<?xml version="1.0" standalone="no"?>
<!DOCTYPE svg PUBLIC "-//W3C//DTD SVG 1.1//EN" "http://www.w3.org/Graphics/SVG/1.1/DTD/svg11.dtd" >
<svg xmlns="http://www.w3.org/2000/svg">
<metadata>Generated by IcoMoon</metadata>
<defs>
<font id="icomoon" horiz-adv-x="1024">
<font-face units-per-em="1024" ascent="960" descent="-64" />
<missing-glyph horiz-adv-x="1024" />
<glyph unicode="&#x20;" horiz-adv-x="512" d="" />
<glyph unicode="&#xe0e5;" glyph-name="rss_feed" d="M170 508.667c234 0 424-190 424-424h-122c0 166-136 302-302 302v122zM170 748.667c366 0 664-298 664-664h-120c0 300-244 544-544 544v120zM170 178.667c0 52 42 92 94 92s92-40 92-92-40-94-92-94-94 42-94 94z" />
<glyph unicode="&#xe258;" glyph-name="vertical_align_bottom" d="M170 128.667h684v-86h-684v86zM682 384.667l-170-172-170 172h128v426h84v-426h128z" />
<glyph unicode="&#xe317;" glyph-name="keyboard_backspace" d="M896 468.667v-84h-604l152-154-60-60-256 256 256 256 60-60-152-154h604z" />
<glyph unicode="&#xe318;" glyph-name="keyboard_capslock" d="M256 170.667v86h512v-86h-512zM512 580.667l-196-196-60 60 256 256 256-256-60-60z" />
<glyph unicode="&#xe31c;" glyph-name="keyboard_tab" d="M854 682.667h84v-512h-84v512zM494 622.667l60 60 256-256-256-256-60 60 154 154h-606v84h606z" />
<glyph unicode="&#xe419;" glyph-name="rotate_left" d="M554 764.667c168-20 300-164 300-338s-132-318-300-338v86c122 20 214 126 214 252s-92 232-214 252v-166l-194 190 194 194v-132zM302 156.667l62 62c32-24 68-38 106-44v-86c-60 8-118 30-168 68zM260 384.667c6-38 20-74 42-106l-60-60c-38 50-60 106-68 166h86zM304 574.667c-22-32-38-68-44-106h-86c8 60 32 116 70 166z" />
<glyph unicode="&#xe5ca;" glyph-name="check" d="M384 248.667l452 452 60-60-512-512-238 238 60 60z" />
<glyph unicode="&#xe5ce;" glyph-name="expand_less" d="M512 596.667l256-256-60-60-196 196-196-196-60 60z" />
<glyph unicode="&#xe5cf;" glyph-name="expand_more" d="M708 572.667l60-60-256-256-256 256 60 60 196-196z" />
<glyph unicode="&#xe5dc;" glyph-name="first_page" d="M256 682.667h86v-512h-86v512zM786 230.667l-60-60-256 256 256 256 60-60-196-196z" />
<glyph unicode="&#xe5dd;" glyph-name="last_page" d="M682 682.667h86v-512h-86v512zM238 622.667l60 60 256-256-256-256-60 60 196 196z" />
<glyph unicode="&#xe8b6;" glyph-name="search2" d="M406 340.667c106 0 192 86 192 192s-86 192-192 192-192-86-192-192 86-192 192-192zM662 340.667l212-212-64-64-212 212v34l-12 12c-48-42-112-66-180-66-154 0-278 122-278 276s124 278 278 278 276-124 276-278c0-68-24-132-66-180l12-12h34z" />
<glyph unicode="&#xe900;" glyph-name="paperplane, send, flight, email" d="M1009.376 954.88c-5.312 3.424-11.36 5.12-17.376 5.12-6.176 0-12.384-1.76-17.76-5.376l-960-640c-9.888-6.56-15.328-18.112-14.048-29.952 1.216-11.808 8.896-22.016 19.936-26.368l250.368-100.192 117.728-206.016c5.632-9.888 16.096-16 27.424-16.128 0.128 0 0.224 0 0.352 0 11.232 0 21.664 5.952 27.424 15.552l66.464 110.816 310.24-124.064c3.808-1.536 7.808-2.272 11.872-2.272 5.44 0 10.816 1.376 15.68 4.128 8.448 4.736 14.24 13.056 15.872 22.624l160 960c2.080 12.576-3.488 25.184-14.176 32.128zM100.352 295.136l741.6 494.432-539.2-577.184c-2.848 1.696-5.376 3.936-8.512 5.184l-193.888 77.568zM326.048 189.888c-0.064 0.128-0.16 0.192-0.224 0.32l606.176 648.8-516.768-805.184-89.184 156.064zM806.944 12.512l-273.312 109.312c-6.496 2.56-13.248 3.424-19.936 3.808l420.864 652.416-127.616-765.536z" />
<glyph unicode="&#xe901;" glyph-name="github" d="M512 960c-282.75 0-512-229.25-512-512 0-226.25 146.688-418.125 350.156-485.812 25.594-4.688 34.938 11.125 34.938 24.625 0 12.188-0.469 52.562-0.719 95.312-142.375-30.937-172.469 60.375-172.469 60.375-23.312 59.125-56.844 74.875-56.844 74.875-46.531 31.75 3.53 31.125 3.53 31.125 51.406-3.562 78.47-52.75 78.47-52.75 45.688-78.25 119.875-55.625 149-42.5 4.654 33 17.904 55.625 32.5 68.375-113.656 12.937-233.218 56.875-233.218 253.063 0 55.938 19.969 101.562 52.656 137.406-5.219 13-22.844 65.094 5.062 135.562 0 0 42.938 13.75 140.812-52.5 40.812 11.406 84.594 17.031 128.125 17.219 43.5-0.188 87.312-5.875 128.188-17.281 97.688 66.312 140.688 52.5 140.688 52.5 28-70.531 10.375-122.562 5.125-135.5 32.812-35.844 52.625-81.469 52.625-137.406 0-196.688-119.75-240-233.812-252.688 18.438-15.875 34.75-47 34.75-94.75 0-68.438-0.688-123.625-0.688-140.5 0-13.625 9.312-29.562 35.25-24.562 203.313 67.812 349.875 259.687 349.875 485.812 0 282.75-229.25 512-512 512z" />
<glyph unicode="&#xe902;" glyph-name="search" d="M426.667 896q78 0 149.167-30.5t122.5-81.833 81.833-122.5 30.5-149.167q0-67-21.833-128.333t-62.167-111.333l242.333-242q12.333-12.333 12.333-30.333 0-18.333-12.167-30.5t-30.5-12.167q-18 0-30.333 12.333l-242 242.333q-50-40.333-111.333-62.167t-128.333-21.833q-78 0-149.167 30.5t-122.5 81.833-81.833 122.5-30.5 149.167 30.5 149.167 81.833 122.5 122.5 81.833 149.167 30.5zM426.667 810.667q-60.667 0-116-23.667t-95.333-63.667-63.667-95.333-23.667-116 23.667-116 63.667-95.333 95.333-63.667 116-23.667 116 23.667 95.333 63.667 63.667 95.333 23.667 116-23.667 116-63.667 95.333-95.333 63.667-116 23.667z" />
<glyph unicode="&#xe903;" glyph-name="facebook" d="M554.667 512h128v-128h-128v-298.667h-128v298.667h-128v128h128v53.547c0 50.731 15.957 114.816 47.701 149.845 31.744 35.115 71.381 52.608 118.869 52.608h89.429v-128h-89.6c-21.248 0-38.4-17.152-38.4-38.357v-89.643z" />
<glyph unicode="&#xe904;" glyph-name="twitter" d="M805.973 639.488c34.475 21.163 57.301 50.048 68.48 86.784-33.536-17.792-66.944-29.995-100.309-36.736-29.995 32.256-67.968 48.64-113.493 48.64-44.501 0-82.091-15.616-112.768-45.995-30.507-30.592-45.909-67.755-45.909-111.147 0-13.184 1.664-24.96 4.992-34.944-131.243 4.48-239.872 58.923-325.461 163.712-14.507-25.643-21.76-51.755-21.76-78.763 0-55.509 23.424-99.499 70.187-131.797-26.667 2.261-50.176 9.003-70.187 20.053 0-39.637 11.648-72.747 34.987-101.888 23.424-28.843 53.504-47.232 90.24-55.083-13.312-3.413-27.349-5.035-41.771-5.035-13.312 0-22.741 1.109-28.331 3.541 9.813-32.299 28.331-58.496 55.083-78.549 26.667-20.139 57.344-30.763 91.819-31.701-56.832-44.587-121.813-66.645-195.328-66.645-18.005 0-30.763 0.256-38.485 1.621 72.405-47.019 153.003-70.357 242.176-70.357 91.264 0 171.904 23.125 242.091 69.376 70.187 45.995 121.984 102.741 155.264 169.557 33.451 66.731 50.005 136.192 50.005 208.725v19.968c32.341 24.32 58.496 51.712 78.507 81.963-29.013-12.501-59.008-20.992-90.027-25.301z" />
<glyph unicode="&#xe905;" glyph-name="sina-weibo" d="M752.026 457.318c-14.029 4.301-23.706 7.27-16.333 26.010 15.923 40.806 17.613 75.981 0.358 101.12-32.41 47.104-121.037 44.595-222.618 1.28 0 0.102-31.898-14.182-23.757 11.622 15.667 51.046 13.261 93.85-11.059 118.528-55.091 56.218-201.574-2.099-327.27-129.997-94.157-95.795-148.787-197.274-148.787-285.082 0-167.987 211.558-280.32 418.56-280.32 271.309 0 451.84 170.701 451.84 298.086 0 77.056-63.693 120.73-120.934 138.752zM421.683 95.795c-165.12-16.384-307.763 58.726-318.464 167.68-10.701 109.005 114.483 210.688 279.654 227.226 165.171 16.384 307.763-58.675 318.464-167.68 10.701-109.107-114.483-210.842-279.654-227.226zM1021.44 594.074c-0.051 169.574-137.523 306.995-307.2 306.995-19.814 0-35.789-15.974-35.789-35.789s15.974-35.789 35.789-35.789c130.099 0 235.571-105.523 235.571-235.622 0-19.814 16.026-35.789 35.84-35.789s35.789 16.026 35.789 35.84v0.154zM879.053 599.296c-16.333 79.974-79.411 143.002-159.386 159.386-19.354 3.994-38.298-8.499-42.291-27.904-3.942-19.302 8.499-38.298 27.904-42.291 52.019-10.598 92.979-51.61 103.629-103.578 3.994-19.405 22.938-31.795 42.291-27.904 19.302 3.994 31.846 22.989 27.853 42.291zM336.998 383.898c-66.56-13.414-111.462-69.222-100.301-124.621 11.162-55.501 74.086-89.6 140.646-76.186 66.509 13.414 111.411 69.222 100.301 124.621-11.162 55.398-74.189 89.6-140.646 76.186z" />
<glyph unicode="&#xe906;" glyph-name="emoji-flirt" d="M384 473.6c42.445 0 76.8 40.090 76.8 89.6s-34.355 89.6-76.8 89.6-76.8-40.141-76.8-89.6 34.406-89.6 76.8-89.6zM512 952.32c-271.462 0-491.52-220.058-491.52-491.52s220.058-491.52 491.52-491.52c271.411 0 491.52 220.058 491.52 491.571 0 271.411-220.109 491.469-491.52 491.469zM512 71.731c-214.886 0-389.12 174.182-389.12 389.12 0 214.886 174.182 389.12 389.12 389.12s389.12-174.234 389.12-389.171c0-214.886-174.234-389.069-389.12-389.069zM734.259 392.397c-18.586 9.574-41.728 2.202-51.61-16.384-1.741-3.328-44.493-81.562-170.598-81.562-125.491 0-168.499 77.466-170.65 81.51-9.626 18.688-32.358 26.317-51.405 16.845-18.944-9.472-26.675-32.563-17.152-51.558 2.56-5.069 63.898-123.597 239.206-123.597 175.36 0 236.595 118.579 239.104 123.648 9.421 18.79 1.843 41.472-16.896 51.098zM576 524.8h128c21.197 0 38.4 17.203 38.4 38.4s-17.203 38.4-38.4 38.4h-128c-21.197 0-38.4-17.203-38.4-38.4 0-21.248 17.203-38.4 38.4-38.4z" />
<glyph unicode="&#xe907;" glyph-name="loading-buble" d="M438.131 775.87c0-25.339 10.432-50.522 28.348-68.439 17.921-17.921 43.105-28.353 68.443-28.353s50.524 10.432 68.439 28.353c17.921 17.916 28.348 43.099 28.348 68.439s-10.426 50.523-28.348 68.443c-17.915 17.916-43.099 28.348-68.439 28.348-25.338 0-50.522-10.432-68.443-28.348-17.915-17.92-28.348-43.104-28.348-68.443v0zM534.946 660.595c-63.564 0-115.299 51.712-115.299 115.275s51.735 115.275 115.299 115.275c63.563 0 115.275-51.711 115.275-115.275 0-63.563-51.712-115.275-115.275-115.275v0zM534.946 854.148c-43.185 0-78.33-35.121-78.33-78.3 0-43.185 35.145-78.306 78.33-78.306 43.179 0 78.305 35.122 78.305 78.306 0 43.179-35.126 78.3-78.305 78.3v0zM202.724 674.398c0-22.73 9.359-45.323 25.433-61.401 16.072-16.072 38.667-25.433 61.4-25.433 22.73 0 45.323 9.36 61.401 25.433 16.072 16.078 25.428 38.672 25.428 61.401 0 22.734-9.356 45.328-25.428 61.4-16.078 16.074-38.672 25.433-61.401 25.433-22.734 0-45.327-9.359-61.4-25.433-16.073-16.073-25.433-38.668-25.433-61.4v0zM289.558 569.079c-58.044 0-105.295 47.251-105.295 105.319 0 58.044 47.251 105.295 105.295 105.295 58.068 0 105.319-47.251 105.319-105.295 0-58.068-47.251-105.319-105.319-105.319v0zM289.558 742.747c-37.661 0-68.32-30.665-68.32-68.326 0-37.683 30.66-68.345 68.32-68.345 37.684 0 68.345 30.661 68.345 68.345 0 37.661-30.66 68.326-68.345 68.326v0zM110.889 423.811c0-19.477 8.017-38.831 21.79-52.6 13.769-13.769 33.123-21.785 52.596-21.785 19.477 0 38.831 8.017 52.6 21.785s21.785 33.123 21.785 52.6c0 19.472-8.017 38.826-21.785 52.596-13.769 13.771-33.123 21.79-52.6 21.79-19.472 0-38.826-8.020-52.596-21.79-13.774-13.77-21.79-33.124-21.79-52.596v0zM185.274 330.941c-51.19 0-92.87 41.652-92.87 92.894 0 51.19 41.652 92.869 92.87 92.869s92.87-41.652 92.87-92.869c0-51.243-41.675-92.894-92.87-92.894v0zM185.274 479.711c-30.807 0-55.9-25.094-55.9-55.9 0-30.834 25.094-55.925 55.9-55.925 30.812 0 55.9 25.090 55.9 55.925s-25.088 55.9-55.9 55.9v0zM229.295 173.789c0-15.776 6.493-31.455 17.653-42.61 11.156-11.156 26.834-17.653 42.61-17.653s31.455 6.496 42.611 17.653c11.155 11.155 17.653 26.834 17.653 42.61s-6.498 31.455-17.653 42.61c-11.156 11.156-26.834 17.653-42.611 17.653s-31.454-6.496-42.61-17.653c-11.16-11.156-17.653-26.834-17.653-42.61v0zM289.558 95.040c-43.429 0-78.748 35.344-78.748 78.749s35.343 78.749 78.748 78.749c43.406 0 78.749-35.344 78.749-78.749s-35.343-78.749-78.749-78.749v0zM289.558 215.567c-23.044 0-41.779-18.757-41.779-41.779s18.757-41.779 41.779-41.779c23.021 0 41.774 18.757 41.774 41.779 0 23.020-18.753 41.779-41.774 41.779v0zM484.615 73.646c0-13.167 5.42-26.255 14.735-35.569 9.312-9.312 22.4-14.738 35.572-14.738 13.169 0 26.256 5.426 35.569 14.738 9.312 9.314 14.733 22.401 14.733 35.569 0 13.172-5.42 26.26-14.733 35.573s-22.4 14.733-35.569 14.733c-13.172 0-26.26-5.42-35.572-14.733-9.314-9.314-14.735-22.401-14.735-35.573v0zM534.946 4.855c-37.934 0-68.815 30.859-68.815 68.791 0 37.934 30.881 68.791 68.815 68.791 37.932 0 68.791-30.857 68.791-68.791s-30.858-68.791-68.791-68.791v0zM534.946 105.467c-17.573 0-31.845-14.272-31.845-31.821s14.272-31.817 31.845-31.817c17.549 0 31.817 14.267 31.817 31.817s-14.267 31.821-31.817 31.821v0zM746.96 176.6c0-9.699 3.991-19.339 10.849-26.195 6.86-6.858 16.496-10.849 26.195-10.849s19.335 3.991 26.195 10.849c6.858 6.855 10.849 16.496 10.849 26.195s-3.991 19.335-10.849 26.195c-6.86 6.854-16.496 10.849-26.195 10.849s-19.335-3.996-26.195-10.849c-6.858-6.86-10.849-16.496-10.849-26.195v0zM784.005 121.042c-30.637 0-55.552 24.921-55.552 55.529 0 30.638 24.915 55.558 55.552 55.558s55.557-24.921 55.557-55.558c0-30.608-24.921-55.529-55.557-55.529v0zM784.005 195.159c-10.254 0-18.583-8.335-18.583-18.589 0-10.225 8.33-18.554 18.583-18.554s18.583 8.33 18.583 18.554c-0.001 10.255-8.33 18.589-18.583 18.589v0zM858.936 423.416c0-7.095 2.918-14.141 7.931-19.152 5.016-5.016 12.063-7.936 19.152-7.936 7.094 0 14.141 2.919 19.157 7.936 5.011 5.011 7.93 12.058 7.93 19.152 0 7.088-2.918 14.141-7.93 19.152-5.016 5.016-12.064 7.936-19.157 7.936-7.089 0-14.136-2.919-19.152-7.936-5.012-5.011-7.931-12.064-7.931-19.152v0zM886.018 377.82c-25.138 0-45.596 20.454-45.596 45.596 0 25.141 20.459 45.596 45.596 45.596 25.141 0 45.577-20.456 45.577-45.596 0-25.142-20.459-45.596-45.577-45.596v0zM886.018 432.043c-4.73 0-8.626-3.869-8.626-8.626s3.873-8.626 8.626-8.626c4.757 0 8.602 3.869 8.602 8.626s-3.868 8.626-8.602 8.626v0zM767.124 670.97c0-4.42 1.818-8.81 4.945-11.936s7.517-4.945 11.936-4.945c4.42 0 8.815 1.818 11.941 4.945s4.945 7.517 4.945 11.936c0 4.424-1.818 8.814-4.945 11.941-3.126 3.126-7.521 4.945-11.941 4.945s-8.81-1.818-11.936-4.945c-3.126-3.126-4.945-7.517-4.945-11.941v0zM748.638 670.97c0-9.256 3.813-18.461 10.357-25.010 6.548-6.545 15.754-10.357 25.010-10.357 9.261 0 18.461 3.813 25.010 10.357 6.549 6.548 10.362 15.754 10.362 25.010 0 9.261-3.813 18.467-10.362 25.010-6.548 6.549-15.749 10.362-25.010 10.362-9.256 0-18.461-3.813-25.010-10.362-6.544-6.543-10.357-15.749-10.357-25.010v0z" />
<glyph unicode="&#xe908;" glyph-name="loading-quarter" d="M960.4 513c-7.6 98.5-50.3 191.3-120.4 261.3s-162.9 112.8-261.3 120.4c-9.9 0.8-19.7-2.6-27-9.3-7.4-6.7-11.6-16.4-11.6-26.4 0-18.6 14.5-34.4 33-35.8 36.6-2.8 72.5-11.5 106.7-25.9 40.9-17.2 77.6-42 109.3-73.7s56.5-68.5 73.7-109.3c14.3-34.1 23.1-70 25.9-106.7 1.5-18.5 17.2-33 35.8-33 10 0 19.7 4.2 26.6 11.4 6.7 7.3 10.1 17.2 9.3 27z" />
<glyph unicode="&#xe909;" glyph-name="loading_3" d="M657.891 358.46c0-1.34 1.081-2.42 2.42-2.42s2.42 1.081 2.42 2.42v0c0 1.339-1.081 2.42-2.42 2.42s-2.42-1.081-2.42-2.42v0 0zM604.436 303.318v0c0-2.679 2.161-4.796 4.796-4.796 2.679 0 4.796 2.161 4.796 4.796v0 0c0 2.679-2.161 4.796-4.796 4.796s-4.796-2.117-4.796-4.796c0-2.636 0 0 0 0v0zM532.397 274.927c0-3.976 3.242-7.218 7.218-7.218s7.218 3.241 7.218 7.218c0 3.976-3.242 7.218-7.218 7.218-3.976 0.044-7.218-3.198-7.218-7.218v0zM454.871 278.729v0c0-5.315 4.321-9.637 9.637-9.637s9.637 4.321 9.637 9.637v0 0c0 5.315-4.321 9.637-9.637 9.637s-9.637-4.321-9.637-9.637c0-5.315 0 0 0 0v0zM386.074 314.034c0-6.655 5.403-12.057 12.057-12.057s12.057 5.402 12.057 12.057v0c0 6.655-5.403 12.057-12.057 12.057s-12.057-5.403-12.057-12.057v0 0zM338.452 374.060c0-7.995 6.483-14.477 14.478-14.477s14.477 6.482 14.477 14.478c0 7.995-6.483 14.478-14.477 14.478s-14.478-6.482-14.478-14.478v0zM320.561 447.74c0-9.333 7.562-16.853 16.853-16.853s16.853 7.562 16.853 16.853c0 9.333-7.562 16.853-16.853 16.853s-16.853-7.562-16.853-16.853v0zM335.254 520.946c0-10.673 8.642-19.274 19.274-19.274s19.274 8.642 19.274 19.274c0 10.632-8.642 19.274-19.274 19.274s-19.274-8.642-19.274-19.274v0zM379.42 579.976c0-11.971 9.724-21.694 21.694-21.694s21.694 9.724 21.694 21.694v0c0 11.971-9.724 21.694-21.694 21.694-12.014 0-21.694-9.724-21.694-21.694v0 0zM444.197 613.77c0-13.31 10.804-24.113 24.112-24.113s24.112 10.804 24.112 24.113c0 13.31-10.805 24.112-24.112 24.112-13.31 0-24.112-10.804-24.112-24.112v0zM516.97 615.887c0-14.649 11.884-26.533 26.533-26.533s26.533 11.884 26.533 26.533v0c0 14.65-11.884 26.533-26.533 26.533-14.649-0.044-26.532-11.884-26.532-26.533v0 0zM583.606 585.896c0-15.946 12.965-28.911 28.911-28.911s28.911 12.965 28.911 28.911c0 15.989-12.965 28.911-28.911 28.911s-28.911-12.922-28.911-28.911v0zM630.968 529.589c0-17.287 14.046-31.33 31.33-31.33s31.331 14.046 31.331 31.33c0 17.286-14.046 31.33-31.33 31.33-17.329 0-31.33-14.046-31.33-31.33v0zM649.811 456.642c0-18.625 15.126-33.75 33.75-33.75s33.75 15.126 33.75 33.75c0 18.624-15.126 33.75-33.75 33.75-18.668 0-33.75-15.126-33.75-33.75v0z" />
<glyph unicode="&#xe90a;" glyph-name="loading-3quarters" d="M318.003 869.171c12.758 10.192 31.41 9.386 43.227-2.432 12.691-12.692 12.69-33.268 0-45.958-3.58-3.579-7.787-6.149-12.269-7.709-53.375-25.846-101.519-64.437-139.462-115.087-61.471-82.081-87.296-183.201-72.702-284.737 14.558-101.537 67.806-191.295 149.886-252.736 169.535-127.039 410.688-92.385 537.6 77.119 33.217 44.387 56 94.113 67.648 147.842 3.777 17.281 20.896 28.256 38.049 24.512 17.277-3.742 28.256-20.799 24.512-38.049-13.664-62.783-40.225-120.832-78.977-172.672-71.713-95.744-176.479-157.887-294.978-174.848-21.599-3.135-43.167-4.672-64.605-4.67-96.161-0.002-189.346 30.814-267.681 89.471-95.743 71.713-157.856 176.48-174.849 294.912-16.992 118.464 13.152 236.449 84.864 332.224 43.557 58.163 98.647 102.684 159.737 132.818z" />
<glyph unicode="&#xe90e;" glyph-name="person" d="M640.767 597.505c0 71.387-58.079 129.465-129.465 129.465s-129.465-58.078-129.465-129.465 58.078-129.465 129.465-129.465c71.386 0 129.465 58.078 129.465 129.465zM829.652 764.323c-84.653 84.653-197.206 131.274-316.924 131.274-119.719 0-232.272-46.622-316.925-131.275s-131.275-197.206-131.275-316.925c0-119.718 46.622-232.272 131.275-316.925 84.654-84.655 197.207-131.276 316.925-131.276s232.272 46.621 316.925 131.276c84.655 84.653 131.276 197.207 131.276 316.925-0.001 119.719-46.622 232.272-131.277 316.926zM732.976 195.997c-11.050 0-20.009 8.959-20.009 20.009 0 111.2-90.466 201.666-201.665 201.666s-201.665-90.466-201.665-201.666c0-11.050-8.958-20.009-20.009-20.009s-20.009 8.959-20.009 20.009c0 107.011 69.916 197.986 166.462 229.684-55.807 27.763-94.263 85.369-94.263 151.817 0 93.452 76.030 169.483 169.483 169.483 93.452 0 169.483-76.030 169.483-169.483 0-66.446-38.456-124.052-94.263-151.817 96.546-31.698 166.462-122.672 166.462-229.684 0-11.050-8.959-20.009-20.009-20.009z" />
<glyph unicode="&#xe90f;" glyph-name="information" d="M512.501 1.602c-119.321 0-231.499 46.465-315.871 130.838s-130.838 196.549-130.838 315.871c0 119.32 46.466 231.499 130.838 315.871 84.373 84.373 196.551 130.838 315.871 130.838s231.499-46.465 315.871-130.838c84.373-84.373 130.838-196.552 130.838-315.871 0-119.322-46.465-231.499-130.838-315.871-84.372-84.373-196.551-130.838-315.871-130.838zM512.501 854.038c-223.718 0-405.727-182.008-405.727-405.727s182.008-405.727 405.727-405.727c223.718 0 405.728 182.008 405.728 405.727s-182.008 405.727-405.728 405.727zM510.151 184.046c-18.107 0-32.746 14.678-32.746 32.786v290.976c0 18.108 14.638 32.786 32.746 32.786s32.746-14.678 32.746-32.786v-290.976c0-18.107-14.638-32.786-32.746-32.786zM466.277 663.541c0-24.897 20.183-45.081 45.081-45.081s45.081 20.183 45.081 45.081c0 24.897-20.183 45.081-45.081 45.081s-45.081-20.183-45.081-45.081z" />
<glyph unicode="&#xe911;" glyph-name="favorite" d="M777.313 19.993c-3.185 0-6.38 0.759-9.308 2.297l-255.31 134.225-255.31-134.224c-6.742-3.544-14.91-2.952-21.071 1.523s-9.247 12.063-7.959 19.569l48.76 284.29-206.548 201.337c-5.453 5.316-7.416 13.268-5.062 20.511s8.614 12.521 16.151 13.616l285.444 41.478 127.654 258.656c3.371 6.829 10.326 11.153 17.942 11.153s14.571-4.323 17.942-11.153l127.654-258.656 285.444-41.478c7.537-1.095 13.797-6.373 16.151-13.616s0.391-15.194-5.062-20.511l-206.549-201.335 48.76-284.29c1.287-7.506-1.799-15.093-7.959-19.569-3.485-2.533-7.613-3.822-11.762-3.822z" />
<glyph unicode="&#xe914;" glyph-name="edit" d="M818.733 751.778c-8.164 30.467-27.703 55.93-55.019 71.701l-96.016 55.435c-56.388 32.554-128.75 13.166-161.305-43.221l-296.806-514.084c-5.41-4.086-8.756-10.702-8.363-17.983l15.233-282.377c0.385-7.144 4.366-13.606 10.575-17.164 3.244-1.86 6.864-2.794 10.489-2.794 3.313 0 6.631 0.781 9.667 2.346l250.305 129.069c4.306 2.221 7.504 5.726 9.411 9.799l279.395 483.927c0.297 0.435 0.613 0.849 0.881 1.312 0.357 0.618 0.677 1.248 0.965 1.886l18.79 32.545c15.772 27.316 19.961 59.138 11.798 89.604zM589.014 849.959c19.584 5.244 40.035 2.555 57.591-7.582l96.016-55.435c17.557-10.136 30.114-26.502 35.361-46.084 5.246-19.581 2.554-40.034-7.582-57.591l-9.301-16.11-227.47 131.33 9.301 16.11c10.136 17.556 26.503 30.114 46.084 35.36zM512.535 761.952l227.469-131.329-243.096-421.054-4.188 19.61c-2.114 9.9-10.859 16.692-20.607 16.692-1.395 0-2.81-0.14-4.229-0.429l-50.18-10.212-13.875 46.64c-3.117 10.476-13.714 16.839-24.43 14.655l-50.011-10.189-13.329 46.081c-1.578 5.455-5.288 10.043-10.29 12.727-5.005 2.688-10.879 3.239-16.295 1.539l-20.392-6.407 243.455 421.676zM244.301 288.274l37.226 11.693 12.739-44.045c3.054-10.559 13.693-17.005 24.476-14.809l50.156 10.22 13.874-46.638c3.117-10.476 13.714-16.836 24.426-14.655l48.628 9.896 7.936-37.156-206.935-106.705-12.526 232.199z" />
<glyph unicode="&#xe918;" glyph-name="thumbs-up" horiz-adv-x="1025" d="M851.742 551.971l-180.458-0.516c10.078 18.938 59.673 118.831 46.532 225.74-5.5 44.907-33.751 79.595-79.565 97.674-17.907 7.032-105.659 19.516-132.206-5.906-18.438-18.845-17.016-44.329-15.375-73.861 0.797-14.235 1.703-30.376 0.953-47.189-4.469-48.486-10.719-74.33-23.078-95.346-37.391-63.657-100.612-98.393-114.127-100.643h-262.6c-17.673 0-32.001-14.328-32.001-32.001v-417.276c0-17.673 14.328-32.001 32.001-32.001l269.334 0.172c0.266-0.219 0.531-0.437 0.813-0.672 23.891-19.813 87.362-72.424 192.443-72.424h210.927c58.642 0 105.971 32.157 123.519 83.94 0.203 0.609 0.391 1.219 0.563 1.844 2.172 8 8.234 25.985 15.235 46.814 28.126 83.533 75.19 223.35 75.19 299.366-0.001 78.863-45.486 122.286-128.098 122.286zM123.818 487.923h101.346v-353.274h-101.346v353.274zM843.991 150.726c-7.641-22.719-13.251-39.36-16.031-49.314-12.61-35.798-47.938-39.689-62.627-39.689h-210.927c-82.002 0-130.769 40.439-151.597 57.704-10.375 8.594-18.578 15.391-31.75 15.391h-81.893v353.104h65.252c36.486 0 122.628 52.736 169.301 132.222 20.156 34.25 27.048 72.033 31.735 123.347 1 21.517-0.032 40.173-0.875 55.174-0.391 7.109-0.844 15.297-0.828 21.438 18.329 1.109 51.423-1.125 61.049-4.781 24.282-9.579 36.829-24.172 39.485-45.923 11.031-89.705-34.298-178.098-39.501-187.896-0.297-0.531-0.765-1.469-1.015-2.031-9.266-20.109-7.625-43.251 4.375-61.954 11.907-18.501 32.329-29.548 54.626-29.548h178.974c53.611 0 64.095-21.375 64.095-58.283 0-65.532-46.736-204.364-71.846-278.96z" />
<glyph unicode="&#xe919;" glyph-name="return" d="M700.371 565.475h-526.343l255.952 227.507c12.389 11.012 13.506 29.981 2.493 42.37-11.012 12.386-29.978 13.507-42.368 2.493l-313.68-278.819c-6.961-5.496-11.434-14.004-11.434-23.562 0-0.013 0.001-0.027 0.001-0.040 0-0.012-0.001-0.026-0.001-0.038 0-0.474 0.015-0.947 0.038-1.418 0.001-0.016 0.001-0.033 0.001-0.049 0.393-8.031 3.993-15.595 10.035-20.962l315.040-280.029c5.717-5.084 12.835-7.581 19.926-7.581 8.274 0 16.514 3.404 22.442 10.074 11.012 12.387 9.896 31.357-2.493 42.368l-256.128 227.665h526.519c109.22 0 198.075-88.856 198.075-198.075s-88.856-198.075-198.075-198.075h-346.045c-16.574 0-30.012-13.437-30.012-30.012s13.437-30.012 30.012-30.012h346.046c142.316 0 258.098 115.783 258.098 258.098s-115.783 258.096-258.098 258.096z" />
<glyph unicode="&#xe91a;" glyph-name="home" d="M958.401 508.451c-0.058 5.76-2.597 11.215-6.966 14.971l-427.090 367.067c-7.499 6.446-18.581 6.446-26.080 0l-188.682-162.164v102.017c0 11.050-8.902 19.533-19.951 19.533h-88.034c-11.049 0-19.929-8.482-19.929-19.533v-211.954l-110.493-94.966c-4.424-3.801-6.968-9.342-6.968-15.174v-105.501c0-7.819 4.555-14.922 11.661-18.183 2.671-1.227 5.516-1.825 8.343-1.825 4.699 0 9.347 1.655 13.048 4.836l53.298 45.826v-324.101c0-60.678 49.364-110.042 110.042-110.042h504.192c60.678 0 110.042 49.364 110.042 110.042v323.673l51.586-44.336c5.956-5.12 14.357-6.282 21.481-2.966 7.122 3.313 11.645 10.489 11.565 18.343l-1.066 104.436zM221.579 809.966h48.095v-115.942l-48.095-41.336v157.278zM570.718 39.274h-134.052v220.083c0 11.031 8.976 20.008 20.008 20.008h94.036c11.031 0 20.008-8.976 20.008-20.008v-220.083zM834.818 464.105v-354.804c0-38.612-31.414-70.027-70.027-70.027h-154.059v220.083c0 33.097-26.926 60.023-60.023 60.023h-94.036c-33.097 0-60.023-26.926-60.023-60.023v-220.085h-136.052c-38.612 0-70.027 31.414-70.027 70.027v354.805c0 1.173-0.122 2.315-0.315 3.432l322.113 276.959 322.703-277.349c-0.151-0.996-0.255-2.006-0.255-3.042zM525.411 786.052c-7.503 6.446-18.587 6.447-26.086-0.003l-395.102-339.713v52.727l407.081 349.87 407.177-349.952 0.522-51.205-393.592 338.276z" />
<glyph unicode="" glyph-name="home" d="M958.401 508.451c-0.058 5.76-2.597 11.215-6.966 14.971l-427.090 367.067c-7.499 6.446-18.581 6.446-26.080 0l-188.682-162.164v102.017c0 11.050-8.902 19.533-19.951 19.533h-88.034c-11.049 0-19.929-8.482-19.929-19.533v-211.954l-110.493-94.966c-4.424-3.801-6.968-9.342-6.968-15.174v-105.501c0-7.819 4.555-14.922 11.661-18.183 2.671-1.227 5.516-1.825 8.343-1.825 4.699 0 9.347 1.655 13.048 4.836l53.298 45.826v-324.101c0-60.678 49.364-110.042 110.042-110.042h504.192c60.678 0 110.042 49.364 110.042 110.042v323.673l51.586-44.336c5.956-5.12 14.357-6.282 21.481-2.966 7.122 3.313 11.645 10.489 11.565 18.343l-1.066 104.436zM221.579 809.966h48.095v-115.942l-48.095-41.336v157.278zM570.718 39.274h-134.052v220.083c0 11.031 8.976 20.008 20.008 20.008h94.036c11.031 0 20.008-8.976 20.008-20.008v-220.083zM834.818 464.105v-354.804c0-38.612-31.414-70.027-70.027-70.027h-154.059v220.083c0 33.097-26.926 60.023-60.023 60.023h-94.036c-33.097 0-60.023-26.926-60.023-60.023v-220.085h-136.052c-38.612 0-70.027 31.414-70.027 70.027v354.805c0 1.173-0.122 2.315-0.315 3.432l322.113 276.959 322.703-277.349c-0.151-0.996-0.255-2.006-0.255-3.042zM525.411 786.052c-7.503 6.446-18.587 6.447-26.086-0.003l-395.102-339.713v52.727l407.081 349.87 407.177-349.952 0.522-51.205-393.592 338.276z" />
<glyph unicode="vertical_align_bottom" glyph-name="vertical_align_bottom" d="M170 128.667h684v-86h-684v86zM682 384.667l-170-172-170 172h128v426h84v-426h128z" />
<glyph unicode="search" glyph-name="search2" d="M406 340.667c106 0 192 86 192 192s-86 192-192 192-192-86-192-192 86-192 192-192zM662 340.667l212-212-64-64-212 212v34l-12 12c-48-42-112-66-180-66-154 0-278 122-278 276s124 278 278 278 276-124 276-278c0-68-24-132-66-180l12-12h34z" />
<glyph unicode="rss_feed" glyph-name="rss_feed" d="M170 508.667c234 0 424-190 424-424h-122c0 166-136 302-302 302v122zM170 748.667c366 0 664-298 664-664h-120c0 300-244 544-544 544v120zM170 178.667c0 52 42 92 94 92s92-40 92-92-40-94-92-94-94 42-94 94z" />
<glyph unicode="rotate_left" glyph-name="rotate_left" d="M554 764.667c168-20 300-164 300-338s-132-318-300-338v86c122 20 214 126 214 252s-92 232-214 252v-166l-194 190 194 194v-132zM302 156.667l62 62c32-24 68-38 106-44v-86c-60 8-118 30-168 68zM260 384.667c6-38 20-74 42-106l-60-60c-38 50-60 106-68 166h86zM304 574.667c-22-32-38-68-44-106h-86c8 60 32 116 70 166z" />
<glyph unicode="last_page" glyph-name="last_page" d="M682 682.667h86v-512h-86v512zM238 622.667l60 60 256-256-256-256-60 60 196 196z" />
<glyph unicode="keyboard_tab" glyph-name="keyboard_tab" d="M854 682.667h84v-512h-84v512zM494 622.667l60 60 256-256-256-256-60 60 154 154h-606v84h606z" />
<glyph unicode="keyboard_capslock" glyph-name="keyboard_capslock" d="M256 170.667v86h512v-86h-512zM512 580.667l-196-196-60 60 256 256 256-256-60-60z" />
<glyph unicode="keyboard_backspace" glyph-name="keyboard_backspace" d="M896 468.667v-84h-604l152-154-60-60-256 256 256 256 60-60-152-154h604z" />
<glyph unicode="first_page" glyph-name="first_page" d="M256 682.667h86v-512h-86v512zM786 230.667l-60-60-256 256 256 256 60-60-196-196z" />
<glyph unicode="expand_more" glyph-name="expand_more" d="M708 572.667l60-60-256-256-256 256 60 60 196-196z" />
<glyph unicode="expand_less" glyph-name="expand_less" d="M512 596.667l256-256-60-60-196 196-196-196-60 60z" />
<glyph unicode="check" glyph-name="check" d="M384 248.667l452 452 60-60-512-512-238 238 60 60z" />
</font>
</defs>
</svg>
